Coordinates
version=1
nRows=11
nColumns=36
inDegrees=yes

Units are S.I. units (second, meters, Newtons, ...)
If the header above contains a line with 'inDegrees', this indicates whether rotational values are in degrees (yes) or radians (no).

endheader
time	pelvis_tilt	pelvis_list	pelvis_rotation	pelvis_tx	pelvis_ty	pelvis_tz	hip_flexion_r	hip_adduction_r	hip_rotation_r	knee_angle_r	knee_angle_r_beta	ankle_angle_r	subtalar_angle_r	mtp_angle_r	hip_flexion_l	hip_adduction_l	hip_rotation_l	knee_angle_l	knee_angle_l_beta	ankle_angle_l	subtalar_angle_l	mtp_angle_l	lumbar_extension	lumbar_bending	lumbar_rotation	arm_flex_r	arm_add_r	arm_rot_r	elbow_flex_r	pro_sup_r	arm_flex_l	arm_add_l	arm_rot_l	elbow_flex_l	pro_sup_l
      0.00000000	      4.72654594	      3.40721624	     10.92427044	      0.68771262	      0.80561909	     -0.18212791	     75.09028561	    -17.23201579	      0.62464587	     55.68099268	      0.97181665	      2.82827669	     -6.14977418	     -6.92750172	     39.13846400	     14.49434598	      0.01344005	     71.90101487	      1.25490945	     21.48266374	    -11.10724251	     -6.92750172	    -32.80202861	     -8.15155007	    -22.51322844	     51.04881854	      4.88627404	     38.89642856	    114.27543192	     73.80733587	     80.32544067	    -19.22567383	     49.45690898	     96.14420662	     84.28741256
      0.01666670	     13.19421290	      8.12364044	     10.55312739	      0.69121528	      0.81108559	     -0.17655265	     66.60032606	    -18.72015457	      4.92676966	     49.87470444	      0.87047781	     10.15640418	      8.07693958	     -7.03381668	     28.59900061	     18.77018665	     -1.68894391	     72.10074854	      1.25839546	     15.58175929	    -19.55531779	     -7.03381668	    -43.31609006	    -10.49074628	    -23.69319651	     54.83058493	      8.48767876	     42.33882862	    112.90293008	     88.76518686	     81.12115910	    -20.69410459	     44.64221644	     97.68179717	     93.52552786
      0.03333330	      9.08044899	     12.90208646	      6.99394938	      0.69295933	      0.80161590	     -0.17164914	     72.57204437	    -15.56301073	     13.90560142	     48.29782446	      0.84295606	      9.75101478	      7.72082095	     -7.16546498	     34.69459931	     21.67821478	     -8.81910838	     74.65250346	      1.30293198	     13.10380193	    -21.02901257	     -7.16546498	    -38.10128538	    -17.02402387	    -24.01364753	     54.32902929	     12.77312166	     44.68345743	    110.04951408	     96.63569514	     77.78890555	    -25.10481942	     44.04717401	    100.30623788	     95.27689013
      0.05000000	      5.88630563	     17.12611638	      6.36623018	      0.69682396	      0.79383783	     -0.16604819	     75.81010644	    -15.36787130	     19.81837913	     46.51935995	      0.81191600	      8.45714955	      7.31626304	     -7.20583768	     37.67424026	     24.17358713	    -13.68877496	     74.14187919	      1.29401991	     18.55471907	    -14.21046475	     -7.20583768	    -34.55967262	    -22.08827667	    -25.19690424	     53.34764653	     14.66311144	     45.93351447	    108.67568787	     96.82927101	     76.74828081	    -26.33078076	     44.51994843	     99.66674358	     94.44983679
      0.06666670	      3.38578410	     20.27442790	      6.61470623	      0.69789281	      0.79016496	     -0.16351340	     78.39121011	    -15.69880053	     24.20393449	     45.48768531	      0.79390988	      6.00022902	      6.95988573	     -7.24627879	     40.46657841	     25.95535569	    -17.14072547	     74.02520883	      1.29198362	     23.02649965	     -8.23456192	     -7.24627879	    -32.22853711	    -25.97765784	    -26.27269975	     52.39267716	     15.54296655	     45.73793551	    107.30960281	     96.44149267	     76.51324366	    -26.63432253	     45.22309297	     97.56612889	     93.25567687
      0.08333330	      1.79364580	     22.68002169	      7.29987221	      0.69867993	      0.78816117	     -0.16206448	     80.08931851	    -16.53732239	     27.34035316	     44.96236706	      0.78474134	      3.54580479	      6.90956945	     -7.29670318	     42.61061615	     27.45633848	    -19.47488657	     74.36990046	      1.29799963	     25.57335336	     -5.04300914	     -7.29670318	    -31.39707644	    -28.62030160	    -27.58919963	     51.83851246	     16.30766823	     46.34961150	    106.73452826	     94.96566469	     76.99935811	    -26.54378634	     46.48129371	     95.37231598	     91.12373147
      0.10000000	      0.97262603	     24.30862069	      7.80465835	      0.69773766	      0.78407905	     -0.16064857	     80.85348278	    -17.30281693	     29.34864719	     44.32952867	      0.77369623	      1.35335256	      6.68761290	     -7.42734750	     44.12768005	     28.49751343	    -20.91605350	     74.92203156	      1.30763613	     27.31842211	     -3.30548918	     -7.42734750	    -31.11358986	    -30.36966109	    -28.81139198	     51.27236854	     16.93403693	     46.38641714	    106.25240350	     96.27714419	     77.70370801	    -26.64519216	     47.61904471	     94.31580991	     90.27600093
      0.11666670	      1.29326076	     25.26067429	      7.90281425	      0.69664345	      0.78477424	     -0.15941427	     80.32530174	    -18.05704558	     30.24693354	     43.83913519	      0.76513725	     -0.44949083	      6.41104080	     -7.48232757	     44.42670806	     29.12301848	    -21.54997798	     75.50437604	      1.31779996	     28.70064668	     -2.45522525	     -7.48232757	    -31.80042426	    -31.03579729	    -29.45429028	     51.50395361	     16.97603488	     46.64281567	    105.29334044	     94.54661479	     78.21990544	    -26.34589723	     48.29993162	     92.95062497	     89.54525572
      0.13333330	      2.02793857	     25.87786564	      7.72813439	      0.69424986	      0.78587349	     -0.15813588	     79.23690508	    -18.57094742	     30.64229814	     43.27083954	      0.75521862	     -2.05853144	      6.00972130	     -7.49796029	     44.33279792	     29.40126412	    -22.01294750	     76.06702941	      1.32762012	     29.45029059	     -2.62102860	     -7.49796029	    -32.98581584	    -31.45846614	    -30.29573827	     52.85933797	     17.17529104	     46.60604712	    104.92293923	     92.01442400	     80.35932408	    -26.45792262	     50.34026023	     91.50215562	     87.84164013
      0.15000000	      2.54157710	     26.15662871	      7.67333506	      0.69286069	      0.78705235	     -0.15723509	     78.27786727	    -19.03789880	     30.63400697	     42.73339551	      0.74583845	     -3.04394626	      5.82241295	     -7.49925004	     44.40144379	     29.53451945	    -22.15830977	     76.63558037	      1.33754320	     29.72966576	     -3.24891730	     -7.49925004	    -33.58435871	    -31.20661896	    -31.41367238	     53.69025123	     18.04448280	     47.30440251	    103.68560171	     89.87910749	     80.92848376	    -28.15512442	     50.53220931	     92.14837251	     87.37255903
      0.16666670	      3.41586038	     26.41206204	      7.08233988	      0.69717577	      0.78938431	     -0.15773751	     76.92251725	    -19.18516847	     30.57688910	     42.18197100	      0.73621428	     -3.70572493	      5.40380248	     -7.49927323	     43.92237921	     29.61455831	    -22.28506078	     76.94998767	      1.34303064	     29.90051911	     -4.03818603	     -7.49927323	    -34.00017995	    -31.26028761	    -31.28969774	     53.04284619	     18.08803610	     47.67597104	    103.69748970	     89.87205524	     80.26091408	    -28.68983604	     49.98931382	     92.27755753	     87.52307403
